<svg width="60" height="60" viewBox="0 0 60 60" fill="none" xmlns="http://www.w3.org/2000/svg">
<g filter="url(#filter0_dii_1402_12360)">
<rect x="2" y="1" width="56" height="56" rx="12" fill="white"/>
<rect x="2.5" y="1.5" width="55" height="55" rx="11.5" stroke="#E4E7EC"/>
<path d="M31.1663 27.8333H36.7663C38.0731 27.8333 38.7265 27.8333 39.2257 28.0877C39.6647 28.3114 40.0217 28.6683 40.2454 29.1074C40.4997 29.6065 40.4997 30.2599 40.4997 31.5667V39.5M31.1663 39.5V22.2333C31.1663 20.9265 31.1663 20.2731 30.912 19.774C30.6883 19.335 30.3314 18.978 29.8923 18.7543C29.3932 18.5 28.7398 18.5 27.433 18.5H23.233C21.9262 18.5 21.2728 18.5 20.7737 18.7543C20.3347 18.978 19.9777 19.335 19.754 19.774C19.4997 20.2731 19.4997 20.9265 19.4997 22.2333V39.5M41.6663 39.5H18.333M23.583 23.1667H27.083M23.583 27.8333H27.083M23.583 32.5H27.083" stroke="#344054" stroke-width="2" stroke-linecap="round" stroke-linejoin="round"/>
</g>
<defs>
<filter id="filter0_dii_1402_12360" x="0" y="0" width="60" height="60" filterUnits="userSpaceOnUse" color-interpolation-filters="sRGB">
<feFlood flood-opacity="0" result="BackgroundImageFix"/>
<feColorMatrix in="SourceAlpha" type="matrix" values="0 0 0 0 0 0 0 0 0 0 0 0 0 0 0 0 0 0 127 0" result="hardAlpha"/>
<feOffset dy="1"/>
<feGaussianBlur stdDeviation="1"/>
<feComposite in2="hardAlpha" operator="out"/>
<feColorMatrix type="matrix" values="0 0 0 0 0.0627451 0 0 0 0 0.0941176 0 0 0 0 0.156863 0 0 0 0.05 0"/>
<feBlend mode="normal" in2="BackgroundImageFix" result="effect1_dropShadow_1402_12360"/>
<feBlend mode="normal" in="SourceGraphic" in2="effect1_dropShadow_1402_12360" result="shape"/>
<feColorMatrix in="SourceAlpha" type="matrix" values="0 0 0 0 0 0 0 0 0 0 0 0 0 0 0 0 0 0 127 0" result="hardAlpha"/>
<feOffset dy="-2"/>
<feComposite in2="hardAlpha" operator="arithmetic" k2="-1" k3="1"/>
<feColorMatrix type="matrix" values="0 0 0 0 0.0627451 0 0 0 0 0.0941176 0 0 0 0 0.156863 0 0 0 0.05 0"/>
<feBlend mode="normal" in2="shape" result="effect2_innerShadow_1402_12360"/>
<feColorMatrix in="SourceAlpha" type="matrix" values="0 0 0 0 0 0 0 0 0 0 0 0 0 0 0 0 0 0 127 0" result="hardAlpha"/>
<feMorphology radius="1" operator="erode" in="SourceAlpha" result="effect3_innerShadow_1402_12360"/>
<feOffset/>
<feComposite in2="hardAlpha" operator="arithmetic" k2="-1" k3="1"/>
<feColorMatrix type="matrix" values="0 0 0 0 0.0627451 0 0 0 0 0.0941176 0 0 0 0 0.156863 0 0 0 0.18 0"/>
<feBlend mode="normal" in2="effect2_innerShadow_1402_12360" result="effect3_innerShadow_1402_12360"/>
</filter>
</defs>
</svg>
