<svg width="168" height="22" viewBox="0 0 168 22" fill="none" xmlns="http://www.w3.org/2000/svg">
<path d="M43.6135 4.03418L37.9799 18.6794H35.9344L30.3227 4.03418H32.691L36.8915 15.7289H36.9954L41.2397 4.03418H43.608H43.6135Z" fill="black"/>
<path d="M43.6736 15.3319V11.3568C43.6736 9.32896 45.0191 8.00928 47.0866 8.00928H50.1385C52.206 8.00928 53.5515 9.32896 53.5515 11.3568V13.8888H45.6372V15.3748C45.6372 16.3351 46.2771 16.9252 47.1741 16.9252H50.0346C50.9535 16.9252 51.5934 16.3404 51.5934 15.4177V15.0422H53.557V15.3372C53.557 17.365 52.2115 18.6847 50.144 18.6847H47.0921C45.0246 18.6847 43.6791 17.365 43.6791 15.3372L43.6736 15.3319ZM51.588 12.3385V11.3138C51.588 10.3536 50.948 9.76348 50.0292 9.76348H47.1686C46.2716 9.76348 45.6317 10.3482 45.6317 11.3138V12.3385H51.5825H51.588Z" fill="black"/>
<path d="M58.4795 8.00931V9.40946H58.5232C59.2507 8.52967 60.3993 7.83765 62.1933 7.83765C64.7311 7.83765 66.0766 9.48993 66.0766 11.6036V18.674H64.113V12.0649C64.113 10.4126 63.3254 9.67769 61.8104 9.67769C60.722 9.67769 59.9125 9.90836 59.3765 10.4502C58.6709 11.1422 58.4795 12.1668 58.4795 13.4651V18.674H56.4941V8.00931H58.4795Z" fill="black"/>
<path d="M74.4996 9.72597H71.6828V15.3534C71.6828 16.4209 72.1751 16.9198 73.2197 16.9198H74.4996V18.6794H72.8806C70.7694 18.6794 69.7247 17.6977 69.7247 15.3319V9.72597H68.1222V8.00931H69.7247V5.03735H71.6883V8.00931H74.5051V9.72597H74.4996Z" fill="black"/>
<path d="M84.5032 18.6794V17.1934C83.7977 18.1161 82.6272 18.8457 80.7894 18.8457C78.2516 18.8457 76.9061 17.1934 76.9061 15.0797V8.00928H78.8697V14.6184C78.8697 16.2707 79.6573 17.0056 81.1723 17.0056C82.2607 17.0056 83.0702 16.7749 83.6062 16.2331C84.3118 15.5411 84.5032 14.5165 84.5032 13.2183V8.00928H86.4886V18.6794H84.5032Z" fill="black"/>
<path d="M91.5424 8.00925V9.84929H91.6299C92.3574 8.84612 93.506 7.98779 95.2562 7.98779H95.9836V9.87075H95.2343C92.8223 9.87075 91.5424 11.5445 91.5424 13.9103V18.6793H89.557V8.00925H91.5424Z" fill="black"/>
<path d="M97.3674 15.3319V11.3568C97.3674 9.32896 98.7129 8.00928 100.78 8.00928H103.832C105.9 8.00928 107.245 9.32896 107.245 11.3568V13.8888H99.3309V15.3748C99.3309 16.3351 99.9708 16.9252 100.868 16.9252H103.728C104.647 16.9252 105.287 16.3404 105.287 15.4177V15.0422H107.251V15.3372C107.251 17.365 105.905 18.6847 103.838 18.6847H100.786C98.7183 18.6847 97.3728 17.365 97.3728 15.3372L97.3674 15.3319ZM105.282 12.3385V11.3138C105.282 10.3536 104.642 9.76348 103.723 9.76348H100.862C99.9654 9.76348 99.3254 10.3482 99.3254 11.3138V12.3385H105.276H105.282Z" fill="black"/>
<path d="M115.559 4.03418H117.67V18.6794H115.559V4.03418Z" fill="black"/>
<path d="M123.238 8.00931V9.40946H123.282C124.009 8.52967 125.158 7.83765 126.952 7.83765C129.49 7.83765 130.835 9.48993 130.835 11.6036V18.674H128.871V12.0649C128.871 10.4126 128.084 9.67769 126.569 9.67769C125.48 9.67769 124.671 9.90836 124.135 10.4502C123.429 11.1422 123.238 12.1668 123.238 13.4651V18.674H121.253V8.00931H123.238Z" fill="black"/>
<path d="M133.285 15.0798V11.2066C133.285 9.25925 134.631 7.83764 137.191 7.83764C139.154 7.83764 140.325 8.65305 141.052 9.51138H141.096V4.03418H143.081V18.6794H141.096V17.3168H141.052C140.346 18.1751 139.176 18.8457 137.382 18.8457C134.713 18.8457 133.285 17.1505 133.285 15.0798ZM141.09 13.3846V13.2988C141.09 10.9544 140.259 9.67768 137.677 9.67768C135.736 9.67768 135.243 10.4126 135.243 12.0649V14.6399C135.243 16.2278 135.971 17.0271 137.677 17.0271C140.215 17.0271 141.09 15.7074 141.09 13.3846Z" fill="black"/>
<path d="M145.679 15.3319V11.3568C145.679 9.32896 147.025 8.00928 149.092 8.00928H152.144C154.212 8.00928 155.557 9.32896 155.557 11.3568V13.8888H147.643V15.3748C147.643 16.3351 148.283 16.9252 149.18 16.9252H152.04C152.959 16.9252 153.599 16.3404 153.599 15.4177V15.0422H155.562V15.3372C155.562 17.365 154.217 18.6847 152.15 18.6847H149.098C147.03 18.6847 145.685 17.365 145.685 15.3372L145.679 15.3319ZM153.593 12.3385V11.3138C153.593 10.3536 152.954 9.76348 152.035 9.76348H149.174C148.277 9.76348 147.637 10.3482 147.637 11.3138V12.3385H153.588H153.593Z" fill="black"/>
<path d="M162.016 14.5379L159.2 18.6579H156.766L160.671 13.2612L156.81 8.00928H159.178L162.016 12.0917L164.855 8.00928H167.223L163.384 13.3041L167.267 18.6579H164.855L162.016 14.5379Z" fill="black"/>
<path d="M3.25492 0H0.853823C0.0935677 0 -0.283825 0.901244 0.252182 1.42697L20.9705 21.7479C21.5065 22.2736 22.4254 21.9034 22.4254 21.1578V18.8027C22.4254 18.5828 22.3379 18.3682 22.1738 18.2126L3.85656 0.246769C3.69794 0.0911973 3.47916 0 3.25492 0Z" fill="#F20000"/>
<path d="M21.577 0H18.9025C18.1422 0 17.7593 0.901244 18.3008 1.42697L20.9754 4.05023C21.5114 4.57596 22.4303 4.2058 22.4303 3.46013V0.836869C22.4303 0.375518 22.0474 0 21.577 0Z" fill="#538D08"/>
<path d="M12.2188 0H9.89428C9.13402 0 8.75116 0.901244 9.29264 1.42697L20.9699 12.8803C21.5059 13.406 22.4248 13.0358 22.4248 12.2902V10.0102C22.4248 9.7903 22.3373 9.57571 22.1732 9.42014L12.8259 0.246769C12.6673 0.0911973 12.4485 0 12.2243 0H12.2188Z" fill="#E8E200"/>
<g style="mix-blend-mode:multiply">
<path d="M3.25492 0H0.853823C0.0935677 0 -0.283825 0.901244 0.252182 1.42697L20.9705 21.7479C21.5065 22.2736 22.4254 21.9034 22.4254 21.1578V18.8027C22.4254 18.5828 22.3379 18.3682 22.1738 18.2126L3.85656 0.246769C3.69794 0.0911973 3.47916 0 3.25492 0Z" fill="url(#paint0_linear_3344_10110)"/>
<path d="M21.577 0H18.9025C18.1422 0 17.7593 0.901244 18.3008 1.42697L20.9754 4.05023C21.5114 4.57596 22.4303 4.2058 22.4303 3.46013V0.836869C22.4303 0.375518 22.0474 0 21.577 0Z" fill="url(#paint1_linear_3344_10110)"/>
<path d="M12.2188 0H9.89428C9.13402 0 8.75116 0.901244 9.29264 1.42697L20.9699 12.8803C21.5059 13.406 22.4248 13.0358 22.4248 12.2902V10.0102C22.4248 9.7903 22.3373 9.57571 22.1732 9.42014L12.8259 0.246769C12.6673 0.0911973 12.4485 0 12.2243 0H12.2188Z" fill="url(#paint2_linear_3344_10110)"/>
</g>
<defs>
<linearGradient id="paint0_linear_3344_10110" x1="9.47916" y1="8.11656" x2="23.8695" y2="22.7884" gradientUnits="userSpaceOnUse">
<stop stop-color="white"/>
<stop offset="1" stop-color="#221F20"/>
</linearGradient>
<linearGradient id="paint1_linear_3344_10110" x1="18.5688" y1="-0.799318" x2="32.9592" y2="13.8725" gradientUnits="userSpaceOnUse">
<stop stop-color="white"/>
<stop offset="1" stop-color="#221F20"/>
</linearGradient>
<linearGradient id="paint2_linear_3344_10110" x1="13.98" y1="3.70154" x2="28.3703" y2="18.3734" gradientUnits="userSpaceOnUse">
<stop stop-color="white"/>
<stop offset="1" stop-color="#221F20"/>
</linearGradient>
</defs>
</svg>
