<svg width="224" height="217" viewBox="0 0 224 217" fill="none" xmlns="http://www.w3.org/2000/svg">
<g clip-path="url(#clip0_1713_7403)">
<path d="M7.1 107.37C7.03 108.9 7 110.45 7 112C7 129.28 11.17 145.58 18.57 159.95" stroke="#F20000" stroke-width="14" stroke-linecap="round" stroke-linejoin="round"/>
<path opacity="0.15" d="M167.16 22.64C151.13 12.72 132.23 7 112 7C91.7702 7 72.9602 12.7 56.9502 22.57" stroke="#F29100" stroke-width="14" stroke-linecap="round" stroke-linejoin="round"/>
<path opacity="0.15" d="M191.61 43.5299C188.67 40.1199 185.52 36.8999 182.18 33.8899" stroke="#E8E200" stroke-width="14" stroke-linecap="round" stroke-linejoin="round"/>
<path opacity="0.15" d="M215.92 96.9C213.01 76.68 204.33 58.31 191.61 43.53" stroke="#E8E200" stroke-width="14" stroke-linecap="round" stroke-linejoin="round"/>
<path opacity="0.15" d="M205.43 159.95C212 147.17 216.03 132.87 216.84 117.71" stroke="#538D08" stroke-width="14" stroke-linecap="round" stroke-linejoin="round"/>
<path d="M32.4696 43.4399C21.8796 55.7099 14.0796 70.4699 10.0596 86.7099" stroke="url(#paint0_linear_1713_7403)" stroke-width="14" stroke-linecap="round" stroke-linejoin="round"/>
<path d="M42.8505 32.99C39.1505 36.23 35.6905 39.72 32.4805 43.44" stroke="url(#paint1_linear_1713_7403)" stroke-width="14" stroke-linecap="round" stroke-linejoin="round"/>
</g>
<path d="M70.0906 16.2026C65.5709 18.1415 61.2022 20.3924 57.0002 22.9392" stroke="#FF9100" stroke-width="14" stroke-linecap="round" stroke-linejoin="round"/>
<path d="M85.8226 10.3964C81.0979 11.7622 76.4847 13.4561 72.0003 15.4644" stroke="#FF9100" stroke-width="14" stroke-linecap="round" stroke-linejoin="round"/>
<path d="M11.9007 190.139C11.1848 190.139 10.5485 190.017 9.99165 189.771C9.43815 189.526 9.00065 189.185 8.67915 188.747C8.35766 188.31 8.18697 187.804 8.16708 187.231H10.0364C10.053 187.506 10.1441 187.746 10.3098 187.952C10.4756 188.154 10.696 188.311 10.9711 188.424C11.2462 188.537 11.5544 188.593 11.8958 188.593C12.2604 188.593 12.5835 188.53 12.8652 188.404C13.147 188.275 13.3674 188.096 13.5265 187.867C13.6855 187.638 13.7634 187.375 13.7601 187.077C13.7634 186.768 13.6839 186.497 13.5215 186.261C13.3591 186.026 13.1238 185.842 12.8155 185.71C12.5106 185.577 12.1427 185.511 11.7118 185.511H10.812V184.089H11.7118C12.0665 184.089 12.3764 184.027 12.6415 183.905C12.91 183.782 13.1204 183.61 13.2729 183.388C13.4254 183.162 13.4999 182.902 13.4966 182.607C13.4999 182.319 13.4353 182.069 13.3027 181.857C13.1735 181.641 12.9895 181.474 12.7509 181.354C12.5156 181.235 12.2388 181.175 11.9206 181.175C11.6091 181.175 11.3207 181.232 11.0556 181.344C10.7904 181.457 10.5766 181.618 10.4142 181.827C10.2518 182.032 10.1657 182.277 10.1557 182.562H8.38086C8.39412 181.992 8.55818 181.492 8.87305 181.061C9.19123 180.627 9.61547 180.289 10.1458 180.047C10.6761 179.802 11.271 179.679 11.9306 179.679C12.61 179.679 13.2 179.807 13.7005 180.062C14.2042 180.314 14.5937 180.653 14.8688 181.081C15.1439 181.509 15.2814 181.981 15.2814 182.498C15.2847 183.071 15.1157 183.552 14.7743 183.94C14.4363 184.327 13.9921 184.581 13.4419 184.7V184.78C14.1578 184.879 14.7064 185.144 15.0875 185.575C15.472 186.003 15.6626 186.535 15.6593 187.171C15.6593 187.741 15.4969 188.252 15.1721 188.702C14.8506 189.15 14.4064 189.501 13.8397 189.756C13.2762 190.012 12.6299 190.139 11.9007 190.139ZM20.9055 190.139C20.2427 190.139 19.6494 190.015 19.1257 189.766C18.602 189.514 18.1861 189.17 17.8778 188.732C17.5729 188.295 17.4105 187.794 17.3906 187.231H19.1804C19.2135 187.648 19.3942 187.99 19.7223 188.255C20.0504 188.517 20.4448 188.648 20.9055 188.648C21.2668 188.648 21.5883 188.565 21.87 188.399C22.1518 188.233 22.3738 188.003 22.5362 187.708C22.6986 187.413 22.7782 187.077 22.7749 186.699C22.7782 186.314 22.697 185.973 22.5312 185.675C22.3655 185.376 22.1385 185.143 21.8501 184.974C21.5618 184.801 21.2304 184.715 20.8558 184.715C20.5509 184.712 20.2509 184.768 19.956 184.884C19.661 185 19.4273 185.153 19.255 185.342L17.5895 185.068L18.1214 179.818H24.0277V181.359H19.6477L19.3544 184.059H19.4141C19.603 183.837 19.8698 183.653 20.2145 183.507C20.5592 183.358 20.937 183.283 21.348 183.283C21.9645 183.283 22.5147 183.429 22.9986 183.721C23.4825 184.009 23.8636 184.407 24.142 184.914C24.4205 185.421 24.5597 186.001 24.5597 186.654C24.5597 187.327 24.4039 187.927 24.0923 188.454C23.7841 188.978 23.3549 189.39 22.8047 189.692C22.2578 189.99 21.6248 190.139 20.9055 190.139ZM29.9886 190.194C29.17 190.194 28.4673 189.987 27.8807 189.572C27.2973 189.155 26.8482 188.553 26.5334 187.768C26.2218 186.979 26.0661 186.029 26.0661 184.919C26.0694 183.809 26.2268 182.864 26.5384 182.085C26.8532 181.303 27.3023 180.706 27.8857 180.295C28.4723 179.884 29.1733 179.679 29.9886 179.679C30.804 179.679 31.505 179.884 32.0916 180.295C32.6783 180.706 33.1274 181.303 33.4389 182.085C33.7538 182.867 33.9112 183.812 33.9112 184.919C33.9112 186.033 33.7538 186.984 33.4389 187.773C33.1274 188.558 32.6783 189.158 32.0916 189.572C31.5083 189.987 30.8073 190.194 29.9886 190.194ZM29.9886 188.638C30.625 188.638 31.1271 188.325 31.495 187.698C31.8662 187.068 32.0518 186.142 32.0518 184.919C32.0518 184.11 31.9673 183.431 31.7983 182.881C31.6293 182.33 31.3906 181.916 31.0824 181.638C30.7741 181.356 30.4096 181.215 29.9886 181.215C29.3556 181.215 28.8551 181.53 28.4872 182.16C28.1193 182.786 27.9337 183.706 27.9304 184.919C27.9271 185.731 28.0083 186.414 28.174 186.967C28.343 187.521 28.5817 187.938 28.8899 188.22C29.1982 188.499 29.5644 188.638 29.9886 188.638Z" fill="#475467"/>
<path d="M193.907 190.139C193.168 190.139 192.512 190.015 191.938 189.766C191.368 189.518 190.921 189.178 190.596 188.747C190.274 188.313 190.115 187.821 190.119 187.271C190.115 186.843 190.208 186.45 190.397 186.092C190.586 185.734 190.841 185.436 191.163 185.197C191.487 184.955 191.849 184.801 192.246 184.735V184.665C191.723 184.549 191.299 184.283 190.974 183.865C190.652 183.444 190.493 182.959 190.496 182.408C190.493 181.885 190.639 181.417 190.934 181.006C191.229 180.595 191.633 180.272 192.147 180.037C192.661 179.798 193.247 179.679 193.907 179.679C194.56 179.679 195.142 179.798 195.652 180.037C196.166 180.272 196.57 180.595 196.865 181.006C197.163 181.417 197.312 181.885 197.312 182.408C197.312 182.959 197.148 183.444 196.82 183.865C196.496 184.283 196.076 184.549 195.562 184.665V184.735C195.96 184.801 196.318 184.955 196.636 185.197C196.958 185.436 197.213 185.734 197.402 186.092C197.594 186.45 197.69 186.843 197.69 187.271C197.69 187.821 197.528 188.313 197.203 188.747C196.878 189.178 196.431 189.518 195.861 189.766C195.294 190.015 194.643 190.139 193.907 190.139ZM193.907 188.717C194.288 188.717 194.62 188.653 194.901 188.523C195.183 188.391 195.402 188.205 195.558 187.967C195.713 187.728 195.793 187.453 195.796 187.141C195.793 186.817 195.708 186.53 195.543 186.281C195.38 186.029 195.156 185.832 194.871 185.69C194.59 185.547 194.268 185.476 193.907 185.476C193.542 185.476 193.218 185.547 192.933 185.69C192.647 185.832 192.422 186.029 192.256 186.281C192.094 186.53 192.014 186.817 192.018 187.141C192.014 187.453 192.091 187.728 192.246 187.967C192.402 188.202 192.621 188.386 192.903 188.518C193.188 188.651 193.522 188.717 193.907 188.717ZM193.907 184.079C194.219 184.079 194.494 184.016 194.732 183.89C194.974 183.764 195.165 183.588 195.304 183.363C195.443 183.138 195.514 182.877 195.518 182.582C195.514 182.291 195.445 182.036 195.309 181.817C195.173 181.595 194.984 181.424 194.742 181.305C194.5 181.182 194.222 181.121 193.907 181.121C193.585 181.121 193.302 181.182 193.057 181.305C192.815 181.424 192.626 181.595 192.49 181.817C192.357 182.036 192.293 182.291 192.296 182.582C192.293 182.877 192.359 183.138 192.495 183.363C192.634 183.585 192.825 183.761 193.067 183.89C193.312 184.016 193.592 184.079 193.907 184.079ZM202.865 190.139C202.202 190.139 201.608 190.015 201.085 189.766C200.561 189.514 200.145 189.17 199.837 188.732C199.532 188.295 199.369 187.794 199.35 187.231H201.139C201.173 187.648 201.353 187.99 201.681 188.255C202.009 188.517 202.404 188.648 202.865 188.648C203.226 188.648 203.547 188.565 203.829 188.399C204.111 188.233 204.333 188.003 204.495 187.708C204.658 187.413 204.737 187.077 204.734 186.699C204.737 186.314 204.656 185.973 204.49 185.675C204.325 185.376 204.097 185.143 203.809 184.974C203.521 184.801 203.189 184.715 202.815 184.715C202.51 184.712 202.21 184.768 201.915 184.884C201.62 185 201.386 185.153 201.214 185.342L199.548 185.068L200.08 179.818H205.987V181.359H201.607L201.313 184.059H201.373C201.562 183.837 201.829 183.653 202.173 183.507C202.518 183.358 202.896 183.283 203.307 183.283C203.923 183.283 204.474 183.429 204.958 183.721C205.441 184.009 205.823 184.407 206.101 184.914C206.379 185.421 206.519 186.001 206.519 186.654C206.519 187.327 206.363 187.927 206.051 188.454C205.743 188.978 205.314 189.39 204.764 189.692C204.217 189.99 203.584 190.139 202.865 190.139ZM211.948 190.194C211.129 190.194 210.426 189.987 209.84 189.572C209.256 189.155 208.807 188.553 208.492 187.768C208.181 186.979 208.025 186.029 208.025 184.919C208.028 183.809 208.186 182.864 208.497 182.085C208.812 181.303 209.261 180.706 209.845 180.295C210.431 179.884 211.132 179.679 211.948 179.679C212.763 179.679 213.464 179.884 214.051 180.295C214.637 180.706 215.086 181.303 215.398 182.085C215.713 182.867 215.87 183.812 215.87 184.919C215.87 186.033 215.713 186.984 215.398 187.773C215.086 188.558 214.637 189.158 214.051 189.572C213.467 189.987 212.766 190.194 211.948 190.194ZM211.948 188.638C212.584 188.638 213.086 188.325 213.454 187.698C213.825 187.068 214.011 186.142 214.011 184.919C214.011 184.11 213.926 183.431 213.757 182.881C213.588 182.33 213.35 181.916 213.041 181.638C212.733 181.356 212.369 181.215 211.948 181.215C211.315 181.215 210.814 181.53 210.446 182.16C210.078 182.786 209.893 183.706 209.889 184.919C209.886 185.731 209.967 186.414 210.133 186.967C210.302 187.521 210.541 187.938 210.849 188.22C211.157 188.499 211.523 188.638 211.948 188.638Z" fill="#475467"/>
<defs>
<linearGradient id="paint0_linear_1713_7403" x1="43.6696" y1="44.2499" x2="-13.0804" y2="96.9999" gradientUnits="userSpaceOnUse">
<stop offset="0.06" stop-color="#F200E9"/>
<stop offset="0.81" stop-color="#F200E9"/>
<stop offset="1" stop-color="#F20000"/>
</linearGradient>
<linearGradient id="paint1_linear_1713_7403" x1="48.3905" y1="28.21" x2="21.1705" y2="53.51" gradientUnits="userSpaceOnUse">
<stop offset="0.06" stop-color="#F200E9"/>
<stop offset="0.81" stop-color="#F200E9"/>
<stop offset="1" stop-color="#F20000"/>
</linearGradient>
<clipPath id="clip0_1713_7403">
<rect width="223.85" height="166.95" fill="white"/>
</clipPath>
</defs>
</svg>
